<svg width="1000" height="1000" viewBox="0 0 1000 1000" fill="none" xmlns="http://www.w3.org/2000/svg">
<g clip-path="url(#clip0_4868_1990)">
<path d="M366.085 908.065C279.113 891.614 212.381 831.054 185.466 744.189L180.644 728.665L162.1 722.651C120.27 709.114 90.2022 690.57 63.2339 661.615C30.8613 626.858 8.76739 581.61 1.50872 535.065C-2.20009 511.249 -0.0278301 463.458 5.85328 440.49C12.2112 415.509 33.6693 373.069 50.465 352.167C79.844 315.636 111.184 293.674 154.842 279.104L181.412 270.229L187.294 250.414C209.705 174.86 270.159 116.499 347.541 95.6238C379.013 87.1465 442.062 87.3585 472.051 96.0742C497.827 103.545 501.244 103.571 526.358 96.3656C579.076 81.2389 645.729 87.8883 695.771 113.241C750.026 140.739 795.618 196.027 811.036 252.957L815.831 270.653L834.666 276.349C877.026 289.144 920.313 317.781 946.725 350.498C1049.86 478.214 995.841 667.549 841.077 720.876L816.043 729.512L812.705 742.599C808.705 758.15 793.101 791.052 780.094 811.397C753.126 853.466 701.255 890.024 647.928 904.542C629.569 909.548 618.999 910.608 587.289 910.608C552.903 910.635 546.174 909.84 523.179 903.138C498.171 895.826 497.138 895.746 484.714 899.879C448.924 911.747 402.59 914.953 366.085 908.065ZM436.579 819.345C444.447 817.914 461.798 811.344 475.15 804.775L499.443 792.8L518.888 803.318C589.726 841.518 673.519 817.464 712.514 747.738C726.581 722.572 730.767 704.027 729.813 670.966L729.018 643.15L764.782 641.693C804.837 640.077 818.454 636.156 845.978 618.38C874.218 600.128 897.107 567.252 905.319 533.21C910.67 510.957 909.478 476.783 902.617 456.385C888.126 413.204 864.204 386.845 821.738 367.215C807.221 360.512 802.559 359.771 768.093 358.817C742.423 358.102 730.263 356.803 730.104 354.764C729.972 353.095 730.051 340.405 730.29 326.524C730.82 296.694 727.561 281.727 714.898 255.394C690.791 205.272 638.55 175.496 580.666 178.94C554.651 180.503 528.292 187.973 512.503 198.278C507.072 201.828 501.059 204.716 499.151 204.716C497.218 204.716 487.946 200.583 478.541 195.523C418.22 163.098 339.752 178.039 298.24 229.883C275.934 257.725 265.47 293.701 267.218 336.405L268.066 357.042L230.978 358.605C202.924 359.823 190.208 361.545 178.71 365.758C114.892 389.07 75.8968 466.107 93.4607 534.164C103.58 573.398 131.291 609.718 163.584 626.01C188.804 638.726 193.228 639.733 232.25 641.534L267.96 643.15L268.252 676.264C268.543 710.995 271.325 723.048 285.339 750.573C293.074 765.7 322.877 795.556 338.269 803.529C368.495 819.239 405.133 825.12 436.579 819.345Z" fill="#026431"/>
<ellipse cx="604.513" cy="497.447" rx="62.255" ry="99.3431" fill="#026431"/>
<ellipse cx="395.224" cy="497.447" rx="62.255" ry="99.3431" fill="#026431"/>
</g>
<defs>
<clipPath id="clip0_4868_1990">
<rect width="1000" height="1000" fill="white"/>
</clipPath>
</defs>
</svg>
